<svg version="1.1" id="Layer_1" xmlns="http://www.w3.org/2000/svg" xmlns:xlink="http://www.w3.org/1999/xlink" x="0px" y="0px"
	 width="100%" viewBox="0 0 2560 2560" enable-background="new 0 0 2560 2560" xml:space="preserve">
<path fill="currentcolor" opacity="000000" stroke="none" 
	d="
M2366.000000,2562.000000 
	C1577.333374,2562.000000 789.666687,2562.000000 2.000000,2562.000000 
	C2.000000,1708.666626 2.000000,855.333313 2.000000,2.000000 
	C855.333313,2.000000 1708.666626,2.000000 2562.000000,2.000000 
	C2562.000000,855.333313 2562.000000,1708.666626 2562.000000,2562.000000 
	C2497.000000,2562.000000 2432.000000,2562.000000 2366.000000,2562.000000 
M2029.721436,1527.654175 
	C2014.240723,1521.427734 2000.229614,1512.718506 1987.277344,1501.344116 
	C1977.846069,1516.139404 1968.956421,1530.085083 1959.830688,1544.401123 
	C1963.078735,1547.343628 1965.585327,1550.003174 1968.468262,1552.159546 
	C1981.884277,1562.194458 1996.481445,1570.110962 2012.312012,1575.619385 
	C2034.090942,1583.197388 2056.511963,1586.844604 2079.553223,1588.708130 
	C2102.056641,1590.528320 2124.038818,1589.034546 2145.798340,1584.127930 
	C2192.210938,1573.661987 2221.685791,1545.176392 2234.478516,1499.266235 
	C2240.057617,1479.244141 2242.246094,1458.823608 2242.283203,1438.182129 
	C2242.431885,1355.204346 2242.350098,1272.226196 2242.331055,1189.248169 
	C2242.330322,1186.344116 2242.089111,1183.440063 2241.954102,1180.406250 
	C2223.189941,1180.406250 2205.115967,1180.406250 2186.322754,1180.406250 
	C2186.322754,1184.753906 2186.322754,1188.364868 2186.322754,1191.975708 
	C2186.323486,1234.964355 2186.459473,1277.953613 2186.210449,1320.940918 
	C2186.160400,1329.525269 2185.401367,1338.259277 2183.659668,1346.652466 
	C2177.676270,1375.486694 2162.491211,1397.618042 2134.210205,1408.380981 
	C2118.007324,1414.547241 2101.142090,1416.730103 2083.416260,1414.579346 
	C2047.307495,1410.198364 2026.298096,1390.283691 2019.973267,1357.027832 
	C2017.571167,1344.397339 2016.627319,1331.334595 2016.501709,1318.454346 
	C2016.085205,1275.803101 2016.352173,1233.145264 2016.329224,1190.489868 
	C2016.327271,1186.988159 2016.114136,1183.486450 2016.011475,1180.364502 
	C1997.221680,1180.364502 1979.723633,1180.364502 1961.654663,1180.364502 
	C1961.654663,1184.679443 1961.654663,1188.305908 1961.654663,1191.932251 
	C1961.655151,1240.919312 1961.354858,1289.909302 1961.855713,1338.891235 
	C1961.990601,1352.079346 1963.222534,1365.559448 1966.255493,1378.359375 
	C1976.519653,1421.676147 2003.380493,1449.401855 2046.918335,1460.276245 
	C2068.401123,1465.641968 2090.066895,1467.233643 2112.097168,1463.772827 
	C2137.795410,1459.735718 2160.506592,1449.828857 2179.176758,1431.386230 
	C2180.962891,1429.621826 2182.789307,1427.897949 2185.763916,1425.030151 
	C2187.361572,1450.348877 2186.681641,1473.733643 2177.181641,1495.861938 
	C2171.141357,1509.931519 2161.336914,1521.119141 2147.529053,1528.430542 
	C2134.053223,1535.565796 2119.563477,1538.842285 2104.489502,1539.619141 
	C2079.280518,1540.918701 2054.757324,1537.511230 2029.721436,1527.654175 
M863.778564,1213.238037 
	C850.948792,1200.592041 835.408264,1192.284302 818.670959,1186.422852 
	C796.883789,1178.793091 774.427856,1175.993164 751.192078,1177.479126 
	C719.844116,1179.483765 692.026672,1189.058350 669.195801,1211.247314 
	C665.326843,1215.007446 661.500854,1218.811768 656.105225,1224.120605 
	C656.105225,1208.108276 656.105225,1194.296875 656.105225,1180.464111 
	C638.126038,1180.464111 621.054504,1180.464111 604.037903,1180.464111 
	C601.989990,1210.281006 602.996216,1577.865601 605.111389,1585.729492 
	C622.584778,1585.729492 640.073425,1585.729492 658.574829,1585.729492 
	C658.574829,1535.724854 658.574829,1486.314087 658.574829,1435.536865 
	C663.523315,1440.318481 667.241211,1443.955444 671.007324,1447.541870 
	C681.233337,1457.279907 692.939453,1464.714111 705.942505,1470.208984 
	C734.736450,1482.376587 764.622864,1483.913208 794.800842,1477.995972 
	C841.062744,1468.925171 876.313477,1443.973145 896.506897,1400.896240 
	C917.616455,1355.865112 917.451660,1309.503174 899.733521,1263.327271 
	C892.370239,1244.137451 880.406189,1227.776855 863.778564,1213.238037 
M1029.024902,1198.124268 
	C1003.199341,1213.093750 983.960266,1234.213379 971.368713,1261.161255 
	C955.930298,1294.202026 952.966370,1328.880981 960.744019,1364.218994 
	C968.110046,1397.686035 984.668396,1426.135864 1011.703552,1447.690796 
	C1040.614746,1470.741821 1074.426392,1480.640747 1110.833740,1481.470459 
	C1130.804688,1481.925659 1150.484741,1478.402710 1169.471924,1471.634033 
	C1195.838257,1462.234863 1218.394043,1447.172974 1235.318481,1424.917114 
	C1268.020264,1381.913818 1274.723022,1333.638184 1260.425415,1282.450073 
	C1246.354370,1232.073242 1212.717773,1199.768188 1163.368164,1183.953979 
	C1143.384155,1177.549927 1122.619263,1176.313843 1101.491821,1177.411865 
	C1076.071289,1178.732910 1052.353394,1184.773071 1029.024902,1198.124268 
M415.139923,1225.678467 
	C447.717987,1224.046143 478.113800,1231.741821 506.526062,1248.613159 
	C514.834595,1233.156860 522.467346,1218.957642 530.207214,1204.559204 
	C519.372559,1197.085815 508.597473,1192.002441 497.173279,1188.410156 
	C462.853271,1177.618652 427.804443,1173.561157 392.025513,1178.398682 
	C370.462952,1181.314087 349.877502,1187.011719 331.670593,1199.936523 
	C306.181824,1218.030640 294.230072,1242.265747 296.335968,1273.415405 
	C297.463654,1290.096069 302.567505,1305.217529 314.040131,1317.813110 
	C323.723480,1328.444336 336.120636,1334.718628 349.249115,1339.731567 
	C372.991699,1348.796997 398.094849,1351.924438 422.898438,1356.370728 
	C436.922729,1358.884644 450.944275,1361.408081 464.059509,1367.471680 
	C473.700806,1371.929321 480.991730,1378.253906 482.208099,1389.346680 
	C483.593506,1401.980713 480.899628,1412.802979 469.226929,1420.555054 
	C457.643066,1428.248169 444.688843,1430.944092 431.532990,1431.912476 
	C397.510529,1434.416748 364.611145,1429.226807 333.580963,1414.436035 
	C325.846252,1410.749146 318.337250,1406.588745 310.778900,1402.674194 
	C302.858154,1411.334961 288.616943,1439.687988 288.301331,1447.689697 
	C290.881927,1449.365356 293.601440,1451.239746 296.422485,1452.946289 
	C327.949432,1472.018799 362.931213,1479.082153 399.007904,1481.460938 
	C410.846741,1482.241699 422.856812,1480.415771 434.789124,1479.792236 
	C456.004303,1478.683594 476.125214,1473.278320 494.649414,1462.992676 
	C525.127991,1446.069458 541.336975,1421.131592 538.525513,1384.936646 
	C536.272644,1355.933716 521.432556,1336.221313 495.708069,1325.098389 
	C481.523773,1318.965332 466.117645,1315.350098 450.979645,1311.807983 
	C431.632263,1307.280762 411.886169,1304.457031 392.540588,1299.923584 
	C383.614502,1297.831787 374.594147,1294.501709 366.729492,1289.850952 
	C348.396332,1279.009766 346.282440,1255.933350 362.160919,1241.664429 
	C367.448456,1236.912842 374.151947,1232.736206 380.918549,1230.863403 
	C391.357880,1227.973999 402.408936,1227.294922 415.139923,1225.678467 
M1719.589111,1462.122803 
	C1720.341064,1460.464600 1722.151123,1458.381958 1721.682373,1457.213501 
	C1716.642822,1444.651489 1711.244019,1432.233521 1705.875854,1419.617432 
	C1704.003540,1420.533203 1703.060547,1420.861206 1702.263794,1421.403931 
	C1688.894165,1430.509888 1674.168701,1435.050415 1658.004761,1433.579224 
	C1637.388062,1431.702881 1625.222656,1421.693115 1620.345459,1403.573364 
	C1618.556396,1396.926514 1617.827271,1389.810181 1617.798340,1382.903076 
	C1617.591064,1333.278687 1617.679688,1283.653076 1617.715210,1234.027832 
	C1617.717041,1231.478394 1618.090942,1228.929199 1618.360962,1225.501709 
	C1646.410278,1225.501709 1673.897827,1225.501709 1701.666382,1225.501709 
	C1701.666382,1209.803467 1701.666382,1195.048096 1701.666382,1179.371704 
	C1673.511597,1179.371704 1646.020752,1179.371704 1617.403320,1179.371704 
	C1617.403320,1157.338989 1617.403320,1136.210571 1617.403320,1115.093262 
	C1598.492554,1115.093262 1580.734375,1115.093262 1562.314331,1115.093262 
	C1562.314331,1119.830200 1562.314331,1123.787354 1562.314331,1127.744629 
	C1562.314453,1213.339844 1562.274170,1298.935181 1562.379028,1384.530273 
	C1562.389160,1392.802368 1562.650024,1401.173218 1563.904175,1409.327515 
	C1568.998047,1442.447510 1586.734741,1465.416748 1619.180298,1475.860107 
	C1634.821045,1480.894409 1650.894287,1481.725098 1667.255737,1480.446289 
	C1685.876099,1478.990845 1703.158813,1474.150391 1719.589111,1462.122803 
M1784.359863,1154.999878 
	C1784.359985,1230.935913 1784.191650,1306.872559 1784.531372,1382.807129 
	C1784.585815,1394.994019 1785.648926,1407.467651 1788.431519,1419.294434 
	C1795.573608,1449.651123 1814.361206,1469.708008 1845.016724,1477.401001 
	C1864.573364,1482.308594 1884.363281,1482.544067 1904.032715,1477.667847 
	C1908.068237,1476.667236 1911.900513,1474.846680 1915.962891,1473.353882 
	C1912.527954,1457.957764 1915.839844,1442.837158 1911.152832,1428.682739 
	C1904.430298,1430.337646 1898.423462,1432.484985 1892.248535,1433.218140 
	C1868.574829,1436.028198 1845.774658,1427.182129 1841.634888,1397.756104 
	C1840.991455,1393.182495 1840.403687,1388.550171 1840.400635,1383.944702 
	C1840.331299,1280.698608 1840.347412,1177.452393 1840.347412,1074.206299 
	C1840.347412,1070.304810 1840.347412,1066.403320 1840.347412,1062.708374 
	C1826.695435,1060.849731 1792.176270,1061.282715 1784.359863,1063.435303 
	C1784.359863,1093.154297 1784.359863,1123.077026 1784.359863,1154.999878 
M1501.704102,1216.694092 
	C1501.703979,1206.362671 1501.790649,1196.030151 1501.676514,1185.699951 
	C1501.582031,1177.145508 1500.893799,1176.233276 1492.671143,1176.419189 
	C1486.395264,1176.561035 1480.136475,1177.595093 1473.876709,1178.292358 
	C1443.231201,1181.705566 1417.032837,1193.533936 1397.775391,1218.516479 
	C1396.942749,1219.596558 1395.782593,1220.424438 1393.522461,1222.544800 
	C1393.522461,1207.436646 1393.522461,1194.165649 1393.522461,1179.970215 
	C1389.567505,1179.375610 1386.075562,1178.314087 1382.621338,1178.425049 
	C1368.520752,1178.878418 1354.270020,1176.826782 1340.466919,1179.711670 
	C1338.422485,1198.518066 1339.253174,1469.898804 1341.459473,1477.678101 
	C1350.203979,1477.678101 1359.162109,1477.885376 1368.106201,1477.619507 
	C1376.960327,1477.356323 1385.928955,1478.830078 1395.684570,1476.428955 
	C1395.684570,1472.570190 1395.684570,1468.975342 1395.684570,1465.380615 
	C1395.683350,1418.055542 1395.770996,1370.730347 1395.627197,1323.405640 
	C1395.583130,1308.886597 1398.743286,1295.053345 1403.811035,1281.656372 
	C1408.091675,1270.340698 1414.856812,1260.553101 1423.928467,1252.348511 
	C1440.846924,1237.046997 1461.229614,1231.315918 1483.387207,1230.378906 
	C1488.958496,1230.143188 1494.548096,1230.343628 1501.040405,1230.343628 
	C1501.301880,1225.717896 1501.502930,1222.161133 1501.704102,1216.694092 
z"/>
<path fill="#2D8BFD" opacity="1.000000" stroke="none" 
	d="
M2030.453979,1527.911377 
	C2054.757324,1537.511230 2079.280518,1540.918701 2104.489502,1539.619141 
	C2119.563477,1538.842285 2134.053223,1535.565796 2147.529053,1528.430542 
	C2161.336914,1521.119141 2171.141357,1509.931519 2177.181641,1495.861938 
	C2186.681641,1473.733643 2187.361572,1450.348877 2185.763916,1425.030151 
	C2182.789307,1427.897949 2180.962891,1429.621826 2179.176758,1431.386230 
	C2160.506592,1449.828857 2137.795410,1459.735718 2112.097168,1463.772827 
	C2090.066895,1467.233643 2068.401123,1465.641968 2046.918335,1460.276245 
	C2003.380493,1449.401855 1976.519653,1421.676147 1966.255493,1378.359375 
	C1963.222534,1365.559448 1961.990601,1352.079346 1961.855713,1338.891235 
	C1961.354858,1289.909302 1961.655151,1240.919312 1961.654663,1191.932251 
	C1961.654663,1188.305908 1961.654663,1184.679443 1961.654663,1180.364502 
	C1979.723633,1180.364502 1997.221680,1180.364502 2016.011475,1180.364502 
	C2016.114136,1183.486450 2016.327271,1186.988159 2016.329224,1190.489868 
	C2016.352173,1233.145264 2016.085205,1275.803101 2016.501709,1318.454346 
	C2016.627319,1331.334595 2017.571167,1344.397339 2019.973267,1357.027832 
	C2026.298096,1390.283691 2047.307495,1410.198364 2083.416260,1414.579346 
	C2101.142090,1416.730103 2118.007324,1414.547241 2134.210205,1408.380981 
	C2162.491211,1397.618042 2177.676270,1375.486694 2183.659668,1346.652466 
	C2185.401367,1338.259277 2186.160400,1329.525269 2186.210449,1320.940918 
	C2186.459473,1277.953613 2186.323486,1234.964355 2186.322754,1191.975708 
	C2186.322754,1188.364868 2186.322754,1184.753906 2186.322754,1180.406250 
	C2205.115967,1180.406250 2223.189941,1180.406250 2241.954102,1180.406250 
	C2242.089111,1183.440063 2242.330322,1186.344116 2242.331055,1189.248169 
	C2242.350098,1272.226196 2242.431885,1355.204346 2242.283203,1438.182129 
	C2242.246094,1458.823608 2240.057617,1479.244141 2234.478516,1499.266235 
	C2221.685791,1545.176392 2192.210938,1573.661987 2145.798340,1584.127930 
	C2124.038818,1589.034546 2102.056641,1590.528320 2079.553223,1588.708130 
	C2056.511963,1586.844604 2034.090942,1583.197388 2012.312012,1575.619385 
	C1996.481445,1570.110962 1981.884277,1562.194458 1968.468262,1552.159546 
	C1965.585327,1550.003174 1963.078735,1547.343628 1959.830688,1544.401123 
	C1968.956421,1530.085083 1977.846069,1516.139404 1987.277344,1501.344116 
	C2000.229614,1512.718506 2014.240723,1521.427734 2030.453979,1527.911377 
z"/>
<path fill="#2D8BFD" opacity="1.000000" stroke="none" 
	d="
M864.292480,1213.730225 
	C880.406189,1227.776855 892.370239,1244.137451 899.733521,1263.327271 
	C917.451660,1309.503174 917.616455,1355.865112 896.506897,1400.896240 
	C876.313477,1443.973145 841.062744,1468.925171 794.800842,1477.995972 
	C764.622864,1483.913208 734.736450,1482.376587 705.942505,1470.208984 
	C692.939453,1464.714111 681.233337,1457.279907 671.007324,1447.541870 
	C667.241211,1443.955444 663.523315,1440.318481 658.574829,1435.536865 
	C658.574829,1486.314087 658.574829,1535.724854 658.574829,1585.729492 
	C640.073425,1585.729492 622.584778,1585.729492 605.111389,1585.729492 
	C602.996216,1577.865601 601.989990,1210.281006 604.037903,1180.464111 
	C621.054504,1180.464111 638.126038,1180.464111 656.105225,1180.464111 
	C656.105225,1194.296875 656.105225,1208.108276 656.105225,1224.120605 
	C661.500854,1218.811768 665.326843,1215.007446 669.195801,1211.247314 
	C692.026672,1189.058350 719.844116,1179.483765 751.192078,1177.479126 
	C774.427856,1175.993164 796.883789,1178.793091 818.670959,1186.422852 
	C835.408264,1192.284302 850.948792,1200.592041 864.292480,1213.730225 
M791.123047,1426.347412 
	C815.305176,1418.128784 833.242004,1402.665894 844.328796,1379.654175 
	C858.943237,1349.321045 859.825867,1318.103882 848.189758,1286.791626 
	C838.678650,1261.197388 820.996521,1242.976074 795.309204,1232.973511 
	C780.211060,1227.094238 764.621399,1224.694580 748.421326,1226.299316 
	C717.178650,1229.394165 691.760254,1242.526855 674.974548,1269.728027 
	C660.074524,1293.873413 655.250549,1320.237671 660.160461,1348.196411 
	C666.106506,1382.055542 682.894531,1408.358032 714.847168,1423.070557 
	C739.091370,1434.233521 764.226196,1435.019653 791.123047,1426.347412 
z"/>
<path fill="#2C8BFC" opacity="1.000000" stroke="none" 
	d="
M1029.640381,1197.718750 
	C1052.353394,1184.773071 1076.071289,1178.732910 1101.491821,1177.411865 
	C1122.619263,1176.313843 1143.384155,1177.549927 1163.368164,1183.953979 
	C1212.717773,1199.768188 1246.354370,1232.073242 1260.425415,1282.450073 
	C1274.723022,1333.638184 1268.020264,1381.913818 1235.318481,1424.917114 
	C1218.394043,1447.172974 1195.838257,1462.234863 1169.471924,1471.634033 
	C1150.484741,1478.402710 1130.804688,1481.925659 1110.833740,1481.470459 
	C1074.426392,1480.640747 1040.614746,1470.741821 1011.703552,1447.690796 
	C984.668396,1426.135864 968.110046,1397.686035 960.744019,1364.218994 
	C952.966370,1328.880981 955.930298,1294.202026 971.368713,1261.161255 
	C983.960266,1234.213379 1003.199341,1213.093750 1029.640381,1197.718750 
M1019.576172,1365.136475 
	C1024.727295,1381.670654 1033.210938,1396.116943 1046.452271,1407.490112 
	C1071.317749,1428.846924 1100.354736,1435.803833 1132.004028,1429.813599 
	C1160.390137,1424.441040 1183.032227,1409.646240 1197.175171,1383.534180 
	C1212.950684,1354.407349 1213.944336,1323.886719 1205.076294,1292.737183 
	C1199.853027,1274.390381 1189.651123,1258.909058 1174.565186,1247.014771 
	C1150.320801,1227.899536 1122.701782,1222.777832 1092.802490,1228.162109 
	C1056.488403,1234.701660 1032.485962,1256.054077 1019.978088,1290.320312 
	C1011.152283,1314.498901 1011.784363,1339.095215 1019.576172,1365.136475 
z"/>
<path fill="#2C8AFC" opacity="1.000000" stroke="none" 
	d="
M414.170227,1225.678223 
	C402.408936,1227.294922 391.357880,1227.973999 380.918549,1230.863403 
	C374.151947,1232.736206 367.448456,1236.912842 362.160919,1241.664429 
	C346.282440,1255.933350 348.396332,1279.009766 366.729492,1289.850952 
	C374.594147,1294.501709 383.614502,1297.831787 392.540588,1299.923584 
	C411.886169,1304.457031 431.632263,1307.280762 450.979645,1311.807983 
	C466.117645,1315.350098 481.523773,1318.965332 495.708069,1325.098389 
	C521.432556,1336.221313 536.272644,1355.933716 538.525513,1384.936646 
	C541.336975,1421.131592 525.127991,1446.069458 494.649414,1462.992676 
	C476.125214,1473.278320 456.004303,1478.683594 434.789124,1479.792236 
	C422.856812,1480.415771 410.846741,1482.241699 399.007904,1481.460938 
	C362.931213,1479.082153 327.949432,1472.018799 296.422485,1452.946289 
	C293.601440,1451.239746 290.881927,1449.365356 288.301331,1447.689697 
	C288.616943,1439.687988 302.858154,1411.334961 310.778900,1402.674194 
	C318.337250,1406.588745 325.846252,1410.749146 333.580963,1414.436035 
	C364.611145,1429.226807 397.510529,1434.416748 431.532990,1431.912476 
	C444.688843,1430.944092 457.643066,1428.248169 469.226929,1420.555054 
	C480.899628,1412.802979 483.593506,1401.980713 482.208099,1389.346680 
	C480.991730,1378.253906 473.700806,1371.929321 464.059509,1367.471680 
	C450.944275,1361.408081 436.922729,1358.884644 422.898438,1356.370728 
	C398.094849,1351.924438 372.991699,1348.796997 349.249115,1339.731567 
	C336.120636,1334.718628 323.723480,1328.444336 314.040131,1317.813110 
	C302.567505,1305.217529 297.463654,1290.096069 296.335968,1273.415405 
	C294.230072,1242.265747 306.181824,1218.030640 331.670593,1199.936523 
	C349.877502,1187.011719 370.462952,1181.314087 392.025513,1178.398682 
	C427.804443,1173.561157 462.853271,1177.618652 497.173279,1188.410156 
	C508.597473,1192.002441 519.372559,1197.085815 530.207214,1204.559204 
	C522.467346,1218.957642 514.834595,1233.156860 506.526062,1248.613159 
	C478.113800,1231.741821 447.717987,1224.046143 414.170227,1225.678223 
z"/>
<path fill="#2C8AFB" opacity="1.000000" stroke="none" 
	d="
M1718.996460,1462.581543 
	C1703.158813,1474.150391 1685.876099,1478.990845 1667.255737,1480.446289 
	C1650.894287,1481.725098 1634.821045,1480.894409 1619.180298,1475.860107 
	C1586.734741,1465.416748 1568.998047,1442.447510 1563.904175,1409.327515 
	C1562.650024,1401.173218 1562.389160,1392.802368 1562.379028,1384.530273 
	C1562.274170,1298.935181 1562.314453,1213.339844 1562.314331,1127.744629 
	C1562.314331,1123.787354 1562.314331,1119.830200 1562.314331,1115.093262 
	C1580.734375,1115.093262 1598.492554,1115.093262 1617.403320,1115.093262 
	C1617.403320,1136.210571 1617.403320,1157.338989 1617.403320,1179.371704 
	C1646.020752,1179.371704 1673.511597,1179.371704 1701.666382,1179.371704 
	C1701.666382,1195.048096 1701.666382,1209.803467 1701.666382,1225.501709 
	C1673.897827,1225.501709 1646.410278,1225.501709 1618.360962,1225.501709 
	C1618.090942,1228.929199 1617.717041,1231.478394 1617.715210,1234.027832 
	C1617.679688,1283.653076 1617.591064,1333.278687 1617.798340,1382.903076 
	C1617.827271,1389.810181 1618.556396,1396.926514 1620.345459,1403.573364 
	C1625.222656,1421.693115 1637.388062,1431.702881 1658.004761,1433.579224 
	C1674.168701,1435.050415 1688.894165,1430.509888 1702.263794,1421.403931 
	C1703.060547,1420.861206 1704.003540,1420.533203 1705.875854,1419.617432 
	C1711.244019,1432.233521 1716.642822,1444.651489 1721.682373,1457.213501 
	C1722.151123,1458.381958 1720.341064,1460.464600 1718.996460,1462.581543 
z"/>
<path fill="#2C8AFD" opacity="1.000000" stroke="none" 
	d="
M1784.359863,1153.999756 
	C1784.359863,1123.077026 1784.359863,1093.154297 1784.359863,1063.435303 
	C1792.176270,1061.282715 1826.695435,1060.849731 1840.347412,1062.708374 
	C1840.347412,1066.403320 1840.347412,1070.304810 1840.347412,1074.206299 
	C1840.347412,1177.452393 1840.331299,1280.698608 1840.400635,1383.944702 
	C1840.403687,1388.550171 1840.991455,1393.182495 1841.634888,1397.756104 
	C1845.774658,1427.182129 1868.574829,1436.028198 1892.248535,1433.218140 
	C1898.423462,1432.484985 1904.430298,1430.337646 1911.152832,1428.682739 
	C1915.839844,1442.837158 1912.527954,1457.957764 1915.962891,1473.353882 
	C1911.900513,1474.846680 1908.068237,1476.667236 1904.032715,1477.667847 
	C1884.363281,1482.544067 1864.573364,1482.308594 1845.016724,1477.401001 
	C1814.361206,1469.708008 1795.573608,1449.651123 1788.431519,1419.294434 
	C1785.648926,1407.467651 1784.585815,1394.994019 1784.531372,1382.807129 
	C1784.191650,1306.872559 1784.359985,1230.935913 1784.359863,1153.999756 
z"/>
<path fill="#2C8AFC" opacity="1.000000" stroke="none" 
	d="
M1501.704102,1217.649170 
	C1501.502930,1222.161133 1501.301880,1225.717896 1501.040405,1230.343628 
	C1494.548096,1230.343628 1488.958496,1230.143188 1483.387207,1230.378906 
	C1461.229614,1231.315918 1440.846924,1237.046997 1423.928467,1252.348511 
	C1414.856812,1260.553101 1408.091675,1270.340698 1403.811035,1281.656372 
	C1398.743286,1295.053345 1395.583130,1308.886597 1395.627197,1323.405640 
	C1395.770996,1370.730347 1395.683350,1418.055542 1395.684570,1465.380615 
	C1395.684570,1468.975342 1395.684570,1472.570190 1395.684570,1476.428955 
	C1385.928955,1478.830078 1376.960327,1477.356323 1368.106201,1477.619507 
	C1359.162109,1477.885376 1350.203979,1477.678101 1341.459473,1477.678101 
	C1339.253174,1469.898804 1338.422485,1198.518066 1340.466919,1179.711670 
	C1354.270020,1176.826782 1368.520752,1178.878418 1382.621338,1178.425049 
	C1386.075562,1178.314087 1389.567505,1179.375610 1393.522461,1179.970215 
	C1393.522461,1194.165649 1393.522461,1207.436646 1393.522461,1222.544800 
	C1395.782593,1220.424438 1396.942749,1219.596558 1397.775391,1218.516479 
	C1417.032837,1193.533936 1443.231201,1181.705566 1473.876709,1178.292358 
	C1480.136475,1177.595093 1486.395264,1176.561035 1492.671143,1176.419189 
	C1500.893799,1176.233276 1501.582031,1177.145508 1501.676514,1185.699951 
	C1501.790649,1196.030151 1501.703979,1206.362671 1501.704102,1217.649170 
z"/>
<path fill="#000102" opacity="1.000000" stroke="none" 
	d="
M790.385437,1426.657715 
	C764.226196,1435.019653 739.091370,1434.233521 714.847168,1423.070557 
	C682.894531,1408.358032 666.106506,1382.055542 660.160461,1348.196411 
	C655.250549,1320.237671 660.074524,1293.873413 674.974548,1269.728027 
	C691.760254,1242.526855 717.178650,1229.394165 748.421326,1226.299316 
	C764.621399,1224.694580 780.211060,1227.094238 795.309204,1232.973511 
	C820.996521,1242.976074 838.678650,1261.197388 848.189758,1286.791626 
	C859.825867,1318.103882 858.943237,1349.321045 844.328796,1379.654175 
	C833.242004,1402.665894 815.305176,1418.128784 790.385437,1426.657715 
z"/>
<path fill="#000102" opacity="1.000000" stroke="none" 
	d="
M1019.266724,1364.388916 
	C1011.784363,1339.095215 1011.152283,1314.498901 1019.978088,1290.320312 
	C1032.485962,1256.054077 1056.488403,1234.701660 1092.802490,1228.162109 
	C1122.701782,1222.777832 1150.320801,1227.899536 1174.565186,1247.014771 
	C1189.651123,1258.909058 1199.853027,1274.390381 1205.076294,1292.737183 
	C1213.944336,1323.886719 1212.950684,1354.407349 1197.175171,1383.534180 
	C1183.032227,1409.646240 1160.390137,1424.441040 1132.004028,1429.813599 
	C1100.354736,1435.803833 1071.317749,1428.846924 1046.452271,1407.490112 
	C1033.210938,1396.116943 1024.727295,1381.670654 1019.266724,1364.388916 
z"/>
</svg>