<svg version="1.1" id="Layer_1" xmlns="http://www.w3.org/2000/svg" xmlns:xlink="http://www.w3.org/1999/xlink" x="0px" y="0px"
	 width="100%" viewBox="0 0 2559 853" enable-background="new 0 0 2559 853" xml:space="preserve">
<path fill="#000000" opacity="1.000000" stroke="none" 
	d="
M1835.000000,854.000000 
	C1223.333374,854.000000 612.166809,854.000000 1.000164,854.000000 
	C1.000109,569.666748 1.000109,285.333557 1.000055,1.000240 
	C853.999756,1.000160 1706.999512,1.000160 2559.999512,1.000080 
	C2559.999512,285.333099 2559.999512,569.666199 2559.999756,853.999634 
	C2318.500000,854.000000 2077.000000,854.000000 1835.000000,854.000000 
M546.240479,654.048889 
	C561.348999,668.341248 578.168762,679.523499 598.501587,685.363098 
	C614.781128,690.038574 631.189575,691.207947 647.683594,688.792114 
	C665.592590,686.168945 682.560730,680.226807 698.447571,671.254333 
	C714.684204,662.084412 729.044983,650.474426 740.871826,636.308228 
	C758.498962,615.194275 771.641296,591.376404 780.125854,565.009766 
	C788.119446,540.168701 790.700928,514.563843 791.880798,488.753265 
	C792.295044,479.690460 791.730774,470.529144 790.913635,461.475952 
	C789.575317,446.648926 788.350403,431.754578 785.809631,417.108612 
	C783.066895,401.297791 778.468933,385.811707 771.557251,371.258118 
	C764.562073,356.528625 756.641541,342.436066 745.761841,329.890472 
	C733.842285,316.145721 720.209839,304.884796 704.436340,296.238190 
	C688.985901,287.768738 671.947998,283.718567 654.592346,282.200500 
	C636.996887,280.661469 619.331055,281.971100 602.345825,287.370209 
	C579.131714,294.749268 558.083984,306.152588 539.887207,322.558685 
	C537.797668,324.442596 535.278259,325.849670 532.865479,327.542847 
	C529.833069,316.685883 526.545532,306.653442 524.377747,296.384674 
	C523.369324,291.608093 521.391907,290.904358 517.200256,290.922333 
	C484.368195,291.062897 451.535309,291.000244 418.702667,291.000275 
	C416.925079,291.000275 415.147491,291.000275 413.307526,291.000275 
	C413.307526,466.590485 413.307526,641.646484 413.307526,816.649414 
	C458.340668,816.649414 503.065674,816.649414 547.999756,816.649414 
	C547.999756,784.813904 548.077271,753.328186 547.953674,721.843323 
	C547.915344,712.078552 547.395630,702.313110 546.968445,692.553528 
	C546.767029,687.951599 546.265137,683.362793 545.896973,678.768188 
	C545.266968,670.906250 544.613159,663.046021 544.070984,655.177979 
	C544.044983,654.800293 544.996765,654.355225 546.240479,654.048889 
M976.424744,680.073669 
	C994.259583,686.415649 1012.825867,689.356201 1031.572632,689.747803 
	C1044.989136,690.027954 1058.615967,688.936035 1071.862427,686.732727 
	C1095.115112,682.864990 1116.660889,673.942139 1137.087402,662.072693 
	C1159.317627,649.155090 1177.580322,631.889832 1192.657349,611.424438 
	C1204.905396,594.798950 1214.425171,576.570679 1220.324219,556.504639 
	C1225.168945,540.025085 1228.871338,523.315247 1229.764282,506.266937 
	C1230.551758,491.234802 1229.416626,476.095520 1228.984619,461.007751 
	C1228.599854,447.561218 1225.336670,434.624146 1222.106812,421.631592 
	C1214.909546,392.680511 1199.995605,367.873779 1180.828979,345.642578 
	C1169.242432,332.203461 1155.411133,321.036682 1140.218506,311.490356 
	C1112.320068,293.960266 1081.991577,284.232117 1049.296753,282.173370 
	C1037.605469,281.437134 1025.779541,282.473846 1014.036011,283.095459 
	C1008.684448,283.378754 1003.322327,284.336609 998.070129,285.473785 
	C975.517212,290.356720 954.476196,298.896606 934.719055,310.948578 
	C913.399780,323.953369 895.985596,341.209534 881.288025,360.901367 
	C868.981140,377.390198 859.820435,395.820251 853.752869,415.850769 
	C847.622437,436.088776 844.962341,456.716522 844.204712,477.594025 
	C843.751709,490.076630 844.948425,502.668549 846.116272,515.144592 
	C847.025269,524.854614 848.491455,534.586304 850.671387,544.087830 
	C854.902527,562.529480 861.968262,579.905029 871.618286,596.267273 
	C882.356995,614.475220 896.347168,629.916199 911.785095,644.073486 
	C917.757446,649.550354 924.312439,654.761536 931.424988,658.547974 
	C945.862915,666.234314 960.861572,672.867493 976.424744,680.073669 
M2164.500000,291.000305 
	C2153.525391,291.000305 2142.550537,291.000305 2131.541016,291.000305 
	C2131.735840,292.195099 2131.724609,293.233734 2132.077393,294.128998 
	C2139.027344,311.767883 2146.001465,329.397430 2153.008057,347.013916 
	C2160.974365,367.043854 2169.052734,387.029449 2176.945801,407.088135 
	C2187.743164,434.526672 2198.355469,462.037994 2209.151367,489.477081 
	C2219.355713,515.413757 2229.746094,541.277283 2239.961182,567.209778 
	C2250.769287,594.647583 2261.579590,622.085693 2272.140869,649.618835 
	C2275.094727,657.319702 2280.938721,664.588623 2277.000732,673.782104 
	C2276.113281,675.853638 2275.624268,678.099792 2274.999023,680.279114 
	C2267.932129,704.914612 2250.469727,718.469604 2225.851562,720.919250 
	C2214.477051,722.051147 2203.159180,720.679932 2192.157959,717.534302 
	C2189.172363,716.680664 2188.501709,717.505188 2187.928711,720.250366 
	C2185.673584,731.053650 2183.222656,741.817444 2180.730225,752.569458 
	C2175.622803,774.602600 2170.442139,796.618713 2165.264404,818.757751 
	C2168.082520,819.410645 2170.589600,820.034119 2173.115234,820.569519 
	C2189.790039,824.104675 2206.546875,827.251587 2223.670654,826.914185 
	C2232.872559,826.732971 2242.121338,826.137329 2251.232910,824.885254 
	C2262.162354,823.383240 2273.156494,821.683716 2283.788330,818.825500 
	C2306.182861,812.804871 2325.122803,800.504822 2341.290771,784.093262 
	C2353.609131,771.589355 2363.188965,757.029663 2372.154541,741.929016 
	C2385.246094,719.878967 2395.793213,696.630737 2404.756104,672.772522 
	C2415.349365,644.574158 2424.303223,615.761169 2434.030762,587.236145 
	C2443.969238,558.091187 2454.017578,528.983521 2463.956787,499.838806 
	C2473.685303,471.311462 2483.337891,442.758270 2493.021973,414.215759 
	C2501.197510,390.120239 2509.355713,366.018738 2517.549805,341.929413 
	C2523.289795,325.054565 2529.077637,308.195923 2534.910889,291.134216 
	C2491.823242,291.134216 2449.187256,291.134216 2406.203125,291.134216 
	C2384.214355,377.568604 2360.041992,463.415161 2342.368408,552.492676 
	C2341.086182,550.498962 2340.263916,549.725281 2340.046631,548.808411 
	C2335.783936,530.814026 2332.004395,512.693970 2327.285156,494.821716 
	C2320.792236,470.231995 2313.934814,445.726257 2306.616943,421.369873 
	C2298.461426,394.225159 2289.612061,367.289032 2281.068848,340.260712 
	C2276.479004,325.738922 2271.569580,311.305237 2267.505127,296.637604 
	C2266.222656,292.008759 2264.587158,290.852386 2259.993652,290.884552 
	C2228.497070,291.104950 2196.998047,291.000275 2164.500000,291.000305 
M1590.000244,369.500000 
	C1590.000244,378.259552 1590.000244,387.019073 1590.000244,396.259338 
	C1607.733276,396.259338 1624.795410,396.259338 1642.000000,396.259338 
	C1642.000000,398.583038 1642.000000,400.409821 1642.000000,402.236572 
	C1642.000000,444.229889 1642.106323,486.223633 1641.946533,528.216370 
	C1641.884277,544.560120 1642.769409,560.723572 1645.881470,576.841858 
	C1650.246094,599.447754 1657.735962,620.627197 1671.052979,639.590027 
	C1681.578857,654.578430 1694.612915,666.696594 1711.012817,674.977539 
	C1731.978394,685.563965 1754.668945,688.836670 1777.739014,689.930786 
	C1797.395630,690.862976 1816.994507,689.291748 1836.331299,685.846436 
	C1849.083740,683.574280 1861.616577,680.034790 1874.181396,676.804688 
	C1875.349243,676.504456 1877.002075,674.158691 1876.798218,673.067749 
	C1874.919556,663.018555 1872.667236,653.039612 1870.550293,643.034485 
	C1867.021362,626.355286 1863.532349,609.667542 1859.981567,592.992981 
	C1858.969116,588.238220 1857.801025,583.516602 1856.699585,578.759521 
	C1852.410522,579.880737 1849.150146,580.859375 1845.833618,581.577820 
	C1832.709473,584.420898 1819.495239,586.934875 1806.374634,581.931152 
	C1795.072754,577.621094 1785.716187,571.137634 1780.934448,559.139526 
	C1777.207520,549.787964 1776.258667,540.010132 1776.170654,530.339111 
	C1775.777710,487.182831 1776.000000,444.021027 1776.000000,400.861206 
	C1776.000000,399.284058 1776.000000,397.706940 1776.000000,395.819153 
	C1806.045654,395.819153 1835.317993,395.819153 1864.711670,395.819153 
	C1864.711670,360.778595 1864.711670,326.057190 1864.711670,290.841309 
	C1835.034912,290.841309 1805.642944,290.841309 1775.763428,290.841309 
	C1775.763428,256.956970 1775.763428,223.565521 1775.763428,190.000977 
	C1739.618286,190.000977 1703.967041,190.039597 1668.316162,189.939514 
	C1664.861328,189.929825 1664.298706,191.690292 1663.963867,194.447479 
	C1663.038818,202.065369 1662.056030,209.680893 1660.861450,217.260361 
	C1659.010864,229.003006 1656.854614,240.697739 1655.034546,252.444824 
	C1653.211060,264.213654 1651.697754,276.030548 1649.871338,287.798859 
	C1649.691650,288.956024 1648.453979,290.537354 1647.391479,290.850830 
	C1644.916260,291.581055 1642.257812,291.795563 1639.656616,291.975433 
	C1629.137451,292.702728 1618.604614,293.241913 1608.091553,294.044342 
	C1602.120605,294.500092 1596.178345,295.331116 1590.000244,296.017883 
	C1590.000244,320.544922 1590.000244,344.522461 1590.000244,369.500000 
M273.375458,454.063019 
	C250.067429,444.706757 226.744675,435.386871 203.458847,425.975647 
	C194.612961,422.400452 185.526138,419.369812 180.365112,410.070465 
	C176.255585,402.665771 178.115143,391.680298 185.096390,386.980164 
	C196.935760,379.009308 210.593491,379.460907 223.282608,381.569824 
	C243.570419,384.941711 262.253845,393.538666 279.173157,405.567444 
	C283.059998,408.330780 287.226257,410.701050 291.132202,413.168976 
	C311.300110,386.262878 331.069214,359.888885 351.474854,332.665619 
	C335.895660,323.351624 320.977081,314.120331 305.761841,305.407135 
	C281.037781,291.248627 253.985046,284.325775 225.850006,282.240967 
	C212.022369,281.216278 198.001465,282.434784 184.086487,283.053406 
	C169.200439,283.715210 154.791107,287.125702 140.653381,291.725433 
	C123.132164,297.425995 107.363968,306.126312 93.242905,318.090057 
	C82.079536,327.547943 72.877861,338.360748 65.925766,351.230865 
	C53.260246,374.678040 51.211452,399.728577 53.952953,425.648102 
	C55.946949,444.500336 64.287086,460.479218 76.258530,474.608521 
	C89.027771,489.679504 104.398804,501.912903 122.187752,510.426880 
	C141.347855,519.597107 161.139771,527.440308 180.576263,536.042725 
	C192.260025,541.213806 204.388077,545.749573 215.230865,552.353271 
	C227.135071,559.603455 226.558060,579.773315 213.134232,585.959595 
	C201.119980,591.496216 188.602432,591.433472 175.643631,590.219360 
	C158.755295,588.637085 143.239395,582.954712 128.459488,575.527405 
	C115.304329,568.916504 103.058861,560.495361 89.919662,552.576538 
	C70.488472,579.547302 50.500893,607.290344 30.523724,635.018982 
	C36.593365,639.402954 41.509716,643.888123 47.206440,646.894775 
	C64.857475,656.210693 82.405624,665.903320 100.736275,673.705078 
	C125.199226,684.116577 151.251068,688.925293 177.800980,689.823242 
	C189.289062,690.211731 200.843155,688.681519 212.366013,688.001526 
	C229.369339,686.998230 245.838852,683.486145 261.972382,678.008057 
	C288.491455,669.003357 309.678101,652.536438 326.478180,630.693176 
	C340.713776,612.184143 347.392456,590.412964 348.942017,567.182800 
	C349.711884,555.641479 348.355255,544.241516 346.091156,532.857361 
	C342.067993,512.628479 331.013367,496.556274 316.812286,482.467926 
	C304.526978,470.280121 289.534454,461.892853 273.375458,454.063019 
M1936.000000,211.500000 
	C1936.000000,328.315582 1935.961426,445.131226 1936.088257,561.946655 
	C1936.096680,569.634460 1936.520996,577.516296 1938.235229,584.966553 
	C1941.606079,599.615601 1945.147583,614.338135 1950.218872,628.455383 
	C1956.920288,647.110535 1969.327515,662.019104 1985.915039,672.877869 
	C2004.445801,685.008667 2025.573975,688.967773 2047.286987,689.884338 
	C2056.021240,690.253052 2064.807129,689.183289 2073.573975,689.035217 
	C2086.914307,688.809875 2099.758301,685.887695 2112.437744,682.130920 
	C2120.776123,679.660400 2120.989502,679.447754 2119.931152,671.170837 
	C2118.671143,661.315491 2116.904297,651.524475 2115.339600,641.708313 
	C2113.570068,630.605042 2111.742676,619.510681 2110.013184,608.401184 
	C2108.542236,598.951904 2107.174561,589.486450 2105.815674,580.393127 
	C2102.154785,580.639343 2099.018311,580.576416 2095.986572,581.108521 
	C2088.538574,582.415771 2081.046875,579.280457 2076.593506,573.249207 
	C2071.806152,566.765503 2070.048096,559.416992 2070.044434,551.655518 
	C2069.982910,416.176086 2070.000000,280.696686 2070.000000,145.217255 
	C2070.000000,143.271637 2070.000000,141.326019 2070.000000,139.298187 
	C2025.089111,139.298187 1980.701782,139.298187 1936.000000,139.298187 
	C1936.000000,163.230103 1936.000000,186.865051 1936.000000,211.500000 
M1569.999756,344.480591 
	C1573.424438,326.137909 1576.849243,307.795258 1580.529907,288.081482 
	C1569.623169,285.977600 1559.373535,282.826538 1548.991089,282.302368 
	C1536.710083,281.682434 1524.138306,282.250244 1512.008057,284.233368 
	C1490.827759,287.696136 1472.548706,298.083252 1456.534546,312.111511 
	C1442.603638,324.314972 1431.525513,338.969818 1422.372559,355.077484 
	C1421.629028,356.385773 1420.296021,357.359039 1418.505615,359.267426 
	C1417.166382,348.425232 1416.096924,339.021454 1414.822754,329.645538 
	C1413.306885,318.492004 1411.405518,307.386597 1410.113525,296.209259 
	C1409.662720,292.308014 1408.559448,290.894775 1404.453735,290.913727 
	C1371.125610,291.067719 1337.796509,290.996948 1304.467651,291.011932 
	C1303.039062,291.012573 1301.610352,291.182312 1300.375488,291.260925 
	C1300.375488,421.413025 1300.375488,551.126099 1300.375488,680.763184 
	C1345.021240,680.763184 1389.291260,680.763184 1433.999756,680.763184 
	C1433.999756,678.577271 1433.999756,676.620850 1433.999756,674.664368 
	C1433.999756,605.840393 1433.995117,537.016418 1434.026123,468.192413 
	C1434.026978,466.417328 1433.942139,464.400574 1434.702759,462.906616 
	C1439.704102,453.081970 1443.928589,442.657806 1450.275269,433.762360 
	C1465.833252,411.956055 1487.868652,400.561310 1514.449951,399.270081 
	C1524.271240,398.792999 1534.254150,401.293121 1544.138794,402.617737 
	C1549.026489,403.272766 1553.858521,404.341675 1558.582764,405.199158 
	C1560.501953,394.861481 1562.216797,385.416687 1564.016235,375.987976 
	C1565.966553,365.769623 1567.995361,355.566345 1569.999756,344.480591 
z"/>
<path fill="#2D8CFF" opacity="1.000000" stroke="none" 
	d="
M545.866821,653.995178 
	C544.996765,654.355225 544.044983,654.800293 544.070984,655.177979 
	C544.613159,663.046021 545.266968,670.906250 545.896973,678.768188 
	C546.265137,683.362793 546.767029,687.951599 546.968445,692.553528 
	C547.395630,702.313110 547.915344,712.078552 547.953674,721.843323 
	C548.077271,753.328186 547.999756,784.813904 547.999756,816.649414 
	C503.065674,816.649414 458.340668,816.649414 413.307526,816.649414 
	C413.307526,641.646484 413.307526,466.590485 413.307526,291.000275 
	C415.147491,291.000275 416.925079,291.000275 418.702667,291.000275 
	C451.535309,291.000244 484.368195,291.062897 517.200256,290.922333 
	C521.391907,290.904358 523.369324,291.608093 524.377747,296.384674 
	C526.545532,306.653442 529.833069,316.685883 532.865479,327.542847 
	C535.278259,325.849670 537.797668,324.442596 539.887207,322.558685 
	C558.083984,306.152588 579.131714,294.749268 602.345825,287.370209 
	C619.331055,281.971100 636.996887,280.661469 654.592346,282.200500 
	C671.947998,283.718567 688.985901,287.768738 704.436340,296.238190 
	C720.209839,304.884796 733.842285,316.145721 745.761841,329.890472 
	C756.641541,342.436066 764.562073,356.528625 771.557251,371.258118 
	C778.468933,385.811707 783.066895,401.297791 785.809631,417.108612 
	C788.350403,431.754578 789.575317,446.648926 790.913635,461.475952 
	C791.730774,470.529144 792.295044,479.690460 791.880798,488.753265 
	C790.700928,514.563843 788.119446,540.168701 780.125854,565.009766 
	C771.641296,591.376404 758.498962,615.194275 740.871826,636.308228 
	C729.044983,650.474426 714.684204,662.084412 698.447571,671.254333 
	C682.560730,680.226807 665.592590,686.168945 647.683594,688.792114 
	C631.189575,691.207947 614.781128,690.038574 598.501587,685.363098 
	C578.168762,679.523499 561.348999,668.341248 545.866821,653.995178 
M570.069641,399.439880 
	C564.033997,404.479187 557.813721,409.320068 552.064575,414.667450 
	C550.101196,416.493622 548.181885,419.585876 548.169067,422.109467 
	C547.937134,467.732452 547.983765,513.356934 548.076843,558.980835 
	C548.079773,560.415527 548.816223,562.329956 549.880981,563.207275 
	C561.597229,572.861450 575.187927,578.516235 590.194946,579.887634 
	C614.792297,582.135437 630.886841,570.374390 641.759644,551.147400 
	C651.434998,534.037903 652.899109,514.497192 653.829407,495.284607 
	C654.412476,483.243713 653.144043,471.123749 653.053955,459.036682 
	C652.961426,446.623840 649.955994,434.828278 645.923096,423.276520 
	C640.603760,408.039825 630.421448,397.024506 614.588867,393.237946 
	C599.546936,389.640472 584.585999,391.418854 570.069641,399.439880 
z"/>
<path fill="#2D8CFF" opacity="1.000000" stroke="none" 
	d="
M976.026917,680.004272 
	C960.861572,672.867493 945.862915,666.234314 931.424988,658.547974 
	C924.312439,654.761536 917.757446,649.550354 911.785095,644.073486 
	C896.347168,629.916199 882.356995,614.475220 871.618286,596.267273 
	C861.968262,579.905029 854.902527,562.529480 850.671387,544.087830 
	C848.491455,534.586304 847.025269,524.854614 846.116272,515.144592 
	C844.948425,502.668549 843.751709,490.076630 844.204712,477.594025 
	C844.962341,456.716522 847.622437,436.088776 853.752869,415.850769 
	C859.820435,395.820251 868.981140,377.390198 881.288025,360.901367 
	C895.985596,341.209534 913.399780,323.953369 934.719055,310.948578 
	C954.476196,298.896606 975.517212,290.356720 998.070129,285.473785 
	C1003.322327,284.336609 1008.684448,283.378754 1014.036011,283.095459 
	C1025.779541,282.473846 1037.605469,281.437134 1049.296753,282.173370 
	C1081.991577,284.232117 1112.320068,293.960266 1140.218506,311.490356 
	C1155.411133,321.036682 1169.242432,332.203461 1180.828979,345.642578 
	C1199.995605,367.873779 1214.909546,392.680511 1222.106812,421.631592 
	C1225.336670,434.624146 1228.599854,447.561218 1228.984619,461.007751 
	C1229.416626,476.095520 1230.551758,491.234802 1229.764282,506.266937 
	C1228.871338,523.315247 1225.168945,540.025085 1220.324219,556.504639 
	C1214.425171,576.570679 1204.905396,594.798950 1192.657349,611.424438 
	C1177.580322,631.889832 1159.317627,649.155090 1137.087402,662.072693 
	C1116.660889,673.942139 1095.115112,682.864990 1071.862427,686.732727 
	C1058.615967,688.936035 1044.989136,690.027954 1031.572632,689.747803 
	C1012.825867,689.356201 994.259583,686.415649 976.026917,680.004272 
M987.928467,434.275574 
	C985.952698,445.806946 983.009155,457.276062 982.261780,468.886505 
	C981.445618,481.565186 982.632507,494.375549 983.000549,507.126984 
	C983.456360,522.915894 986.698059,538.120544 993.037964,552.594788 
	C997.656189,563.138306 1004.053040,572.152771 1015.071655,577.031311 
	C1025.697998,581.736389 1036.896729,582.893494 1048.041382,580.738464 
	C1058.715942,578.674377 1068.617676,573.822876 1074.764404,564.361084 
	C1086.020996,547.033264 1090.463013,527.371582 1091.860352,507.085632 
	C1092.638672,495.786285 1091.979370,484.389343 1092.005005,473.036469 
	C1092.043823,455.889923 1089.132446,439.254333 1082.922485,423.285187 
	C1079.691284,414.976379 1075.692505,407.010040 1068.788208,400.951416 
	C1058.118164,391.588501 1045.442383,389.103119 1031.724243,389.979736 
	C1023.730164,390.490601 1016.498779,393.393494 1009.982910,397.644714 
	C997.118469,406.037933 991.942871,419.429016 987.928467,434.275574 
z"/>
<path fill="#2D8CFF" opacity="1.000000" stroke="none" 
	d="
M2165.000000,291.000305 
	C2196.998047,291.000275 2228.497070,291.104950 2259.993652,290.884552 
	C2264.587158,290.852386 2266.222656,292.008759 2267.505127,296.637604 
	C2271.569580,311.305237 2276.479004,325.738922 2281.068848,340.260712 
	C2289.612061,367.289032 2298.461426,394.225159 2306.616943,421.369873 
	C2313.934814,445.726257 2320.792236,470.231995 2327.285156,494.821716 
	C2332.004395,512.693970 2335.783936,530.814026 2340.046631,548.808411 
	C2340.263916,549.725281 2341.086182,550.498962 2342.368408,552.492676 
	C2360.041992,463.415161 2384.214355,377.568604 2406.203125,291.134216 
	C2449.187256,291.134216 2491.823242,291.134216 2534.910889,291.134216 
	C2529.077637,308.195923 2523.289795,325.054565 2517.549805,341.929413 
	C2509.355713,366.018738 2501.197510,390.120239 2493.021973,414.215759 
	C2483.337891,442.758270 2473.685303,471.311462 2463.956787,499.838806 
	C2454.017578,528.983521 2443.969238,558.091187 2434.030762,587.236145 
	C2424.303223,615.761169 2415.349365,644.574158 2404.756104,672.772522 
	C2395.793213,696.630737 2385.246094,719.878967 2372.154541,741.929016 
	C2363.188965,757.029663 2353.609131,771.589355 2341.290771,784.093262 
	C2325.122803,800.504822 2306.182861,812.804871 2283.788330,818.825500 
	C2273.156494,821.683716 2262.162354,823.383240 2251.232910,824.885254 
	C2242.121338,826.137329 2232.872559,826.732971 2223.670654,826.914185 
	C2206.546875,827.251587 2189.790039,824.104675 2173.115234,820.569519 
	C2170.589600,820.034119 2168.082520,819.410645 2165.264404,818.757751 
	C2170.442139,796.618713 2175.622803,774.602600 2180.730225,752.569458 
	C2183.222656,741.817444 2185.673584,731.053650 2187.928711,720.250366 
	C2188.501709,717.505188 2189.172363,716.680664 2192.157959,717.534302 
	C2203.159180,720.679932 2214.477051,722.051147 2225.851562,720.919250 
	C2250.469727,718.469604 2267.932129,704.914612 2274.999023,680.279114 
	C2275.624268,678.099792 2276.113281,675.853638 2277.000732,673.782104 
	C2280.938721,664.588623 2275.094727,657.319702 2272.140869,649.618835 
	C2261.579590,622.085693 2250.769287,594.647583 2239.961182,567.209778 
	C2229.746094,541.277283 2219.355713,515.413757 2209.151367,489.477081 
	C2198.355469,462.037994 2187.743164,434.526672 2176.945801,407.088135 
	C2169.052734,387.029449 2160.974365,367.043854 2153.008057,347.013916 
	C2146.001465,329.397430 2139.027344,311.767883 2132.077393,294.128998 
	C2131.724609,293.233734 2131.735840,292.195099 2131.541016,291.000305 
	C2142.550537,291.000305 2153.525391,291.000305 2165.000000,291.000305 
z"/>
<path fill="#2D8CFF" opacity="1.000000" stroke="none" 
	d="
M1590.000244,369.000000 
	C1590.000244,344.522461 1590.000244,320.544922 1590.000244,296.017883 
	C1596.178345,295.331116 1602.120605,294.500092 1608.091553,294.044342 
	C1618.604614,293.241913 1629.137451,292.702728 1639.656616,291.975433 
	C1642.257812,291.795563 1644.916260,291.581055 1647.391479,290.850830 
	C1648.453979,290.537354 1649.691650,288.956024 1649.871338,287.798859 
	C1651.697754,276.030548 1653.211060,264.213654 1655.034546,252.444824 
	C1656.854614,240.697739 1659.010864,229.003006 1660.861450,217.260361 
	C1662.056030,209.680893 1663.038818,202.065369 1663.963867,194.447479 
	C1664.298706,191.690292 1664.861328,189.929825 1668.316162,189.939514 
	C1703.967041,190.039597 1739.618286,190.000977 1775.763428,190.000977 
	C1775.763428,223.565521 1775.763428,256.956970 1775.763428,290.841309 
	C1805.642944,290.841309 1835.034912,290.841309 1864.711670,290.841309 
	C1864.711670,326.057190 1864.711670,360.778595 1864.711670,395.819153 
	C1835.317993,395.819153 1806.045654,395.819153 1776.000000,395.819153 
	C1776.000000,397.706940 1776.000000,399.284058 1776.000000,400.861206 
	C1776.000000,444.021027 1775.777710,487.182831 1776.170654,530.339111 
	C1776.258667,540.010132 1777.207520,549.787964 1780.934448,559.139526 
	C1785.716187,571.137634 1795.072754,577.621094 1806.374634,581.931152 
	C1819.495239,586.934875 1832.709473,584.420898 1845.833618,581.577820 
	C1849.150146,580.859375 1852.410522,579.880737 1856.699585,578.759521 
	C1857.801025,583.516602 1858.969116,588.238220 1859.981567,592.992981 
	C1863.532349,609.667542 1867.021362,626.355286 1870.550293,643.034485 
	C1872.667236,653.039612 1874.919556,663.018555 1876.798218,673.067749 
	C1877.002075,674.158691 1875.349243,676.504456 1874.181396,676.804688 
	C1861.616577,680.034790 1849.083740,683.574280 1836.331299,685.846436 
	C1816.994507,689.291748 1797.395630,690.862976 1777.739014,689.930786 
	C1754.668945,688.836670 1731.978394,685.563965 1711.012817,674.977539 
	C1694.612915,666.696594 1681.578857,654.578430 1671.052979,639.590027 
	C1657.735962,620.627197 1650.246094,599.447754 1645.881470,576.841858 
	C1642.769409,560.723572 1641.884277,544.560120 1641.946533,528.216370 
	C1642.106323,486.223633 1642.000000,444.229889 1642.000000,402.236572 
	C1642.000000,400.409821 1642.000000,398.583038 1642.000000,396.259338 
	C1624.795410,396.259338 1607.733276,396.259338 1590.000244,396.259338 
	C1590.000244,387.019073 1590.000244,378.259552 1590.000244,369.000000 
z"/>
<path fill="#2D8CFF" opacity="1.000000" stroke="none" 
	d="
M273.687622,454.281494 
	C289.534454,461.892853 304.526978,470.280121 316.812286,482.467926 
	C331.013367,496.556274 342.067993,512.628479 346.091156,532.857361 
	C348.355255,544.241516 349.711884,555.641479 348.942017,567.182800 
	C347.392456,590.412964 340.713776,612.184143 326.478180,630.693176 
	C309.678101,652.536438 288.491455,669.003357 261.972382,678.008057 
	C245.838852,683.486145 229.369339,686.998230 212.366013,688.001526 
	C200.843155,688.681519 189.289062,690.211731 177.800980,689.823242 
	C151.251068,688.925293 125.199226,684.116577 100.736275,673.705078 
	C82.405624,665.903320 64.857475,656.210693 47.206440,646.894775 
	C41.509716,643.888123 36.593365,639.402954 30.523724,635.018982 
	C50.500893,607.290344 70.488472,579.547302 89.919662,552.576538 
	C103.058861,560.495361 115.304329,568.916504 128.459488,575.527405 
	C143.239395,582.954712 158.755295,588.637085 175.643631,590.219360 
	C188.602432,591.433472 201.119980,591.496216 213.134232,585.959595 
	C226.558060,579.773315 227.135071,559.603455 215.230865,552.353271 
	C204.388077,545.749573 192.260025,541.213806 180.576263,536.042725 
	C161.139771,527.440308 141.347855,519.597107 122.187752,510.426880 
	C104.398804,501.912903 89.027771,489.679504 76.258530,474.608521 
	C64.287086,460.479218 55.946949,444.500336 53.952953,425.648102 
	C51.211452,399.728577 53.260246,374.678040 65.925766,351.230865 
	C72.877861,338.360748 82.079536,327.547943 93.242905,318.090057 
	C107.363968,306.126312 123.132164,297.425995 140.653381,291.725433 
	C154.791107,287.125702 169.200439,283.715210 184.086487,283.053406 
	C198.001465,282.434784 212.022369,281.216278 225.850006,282.240967 
	C253.985046,284.325775 281.037781,291.248627 305.761841,305.407135 
	C320.977081,314.120331 335.895660,323.351624 351.474854,332.665619 
	C331.069214,359.888885 311.300110,386.262878 291.132202,413.168976 
	C287.226257,410.701050 283.059998,408.330780 279.173157,405.567444 
	C262.253845,393.538666 243.570419,384.941711 223.282608,381.569824 
	C210.593491,379.460907 196.935760,379.009308 185.096390,386.980164 
	C178.115143,391.680298 176.255585,402.665771 180.365112,410.070465 
	C185.526138,419.369812 194.612961,422.400452 203.458847,425.975647 
	C226.744675,435.386871 250.067429,444.706757 273.687622,454.281494 
z"/>
<path fill="#2D8CFF" opacity="1.000000" stroke="none" 
	d="
M1936.000000,211.000000 
	C1936.000000,186.865051 1936.000000,163.230103 1936.000000,139.298187 
	C1980.701782,139.298187 2025.089111,139.298187 2070.000000,139.298187 
	C2070.000000,141.326019 2070.000000,143.271637 2070.000000,145.217255 
	C2070.000000,280.696686 2069.982910,416.176086 2070.044434,551.655518 
	C2070.048096,559.416992 2071.806152,566.765503 2076.593506,573.249207 
	C2081.046875,579.280457 2088.538574,582.415771 2095.986572,581.108521 
	C2099.018311,580.576416 2102.154785,580.639343 2105.815674,580.393127 
	C2107.174561,589.486450 2108.542236,598.951904 2110.013184,608.401184 
	C2111.742676,619.510681 2113.570068,630.605042 2115.339600,641.708313 
	C2116.904297,651.524475 2118.671143,661.315491 2119.931152,671.170837 
	C2120.989502,679.447754 2120.776123,679.660400 2112.437744,682.130920 
	C2099.758301,685.887695 2086.914307,688.809875 2073.573975,689.035217 
	C2064.807129,689.183289 2056.021240,690.253052 2047.286987,689.884338 
	C2025.573975,688.967773 2004.445801,685.008667 1985.915039,672.877869 
	C1969.327515,662.019104 1956.920288,647.110535 1950.218872,628.455383 
	C1945.147583,614.338135 1941.606079,599.615601 1938.235229,584.966553 
	C1936.520996,577.516296 1936.096680,569.634460 1936.088257,561.946655 
	C1935.961426,445.131226 1936.000000,328.315582 1936.000000,211.000000 
z"/>
<path fill="#2D8CFF" opacity="1.000000" stroke="none" 
	d="
M1569.994873,344.918518 
	C1567.995361,355.566345 1565.966553,365.769623 1564.016235,375.987976 
	C1562.216797,385.416687 1560.501953,394.861481 1558.582764,405.199158 
	C1553.858521,404.341675 1549.026489,403.272766 1544.138794,402.617737 
	C1534.254150,401.293121 1524.271240,398.792999 1514.449951,399.270081 
	C1487.868652,400.561310 1465.833252,411.956055 1450.275269,433.762360 
	C1443.928589,442.657806 1439.704102,453.081970 1434.702759,462.906616 
	C1433.942139,464.400574 1434.026978,466.417328 1434.026123,468.192413 
	C1433.995117,537.016418 1433.999756,605.840393 1433.999756,674.664368 
	C1433.999756,676.620850 1433.999756,678.577271 1433.999756,680.763184 
	C1389.291260,680.763184 1345.021240,680.763184 1300.375488,680.763184 
	C1300.375488,551.126099 1300.375488,421.413025 1300.375488,291.260925 
	C1301.610352,291.182312 1303.039062,291.012573 1304.467651,291.011932 
	C1337.796509,290.996948 1371.125610,291.067719 1404.453735,290.913727 
	C1408.559448,290.894775 1409.662720,292.308014 1410.113525,296.209259 
	C1411.405518,307.386597 1413.306885,318.492004 1414.822754,329.645538 
	C1416.096924,339.021454 1417.166382,348.425232 1418.505615,359.267426 
	C1420.296021,357.359039 1421.629028,356.385773 1422.372559,355.077484 
	C1431.525513,338.969818 1442.603638,324.314972 1456.534546,312.111511 
	C1472.548706,298.083252 1490.827759,287.696136 1512.008057,284.233368 
	C1524.138306,282.250244 1536.710083,281.682434 1548.991089,282.302368 
	C1559.373535,282.826538 1569.623169,285.977600 1580.529907,288.081482 
	C1576.849243,307.795258 1573.424438,326.137909 1569.994873,344.918518 
z"/>
<path fill="#000000" opacity="1.000000" stroke="none" 
	d="
M570.393005,399.245422 
	C584.585999,391.418854 599.546936,389.640472 614.588867,393.237946 
	C630.421448,397.024506 640.603760,408.039825 645.923096,423.276520 
	C649.955994,434.828278 652.961426,446.623840 653.053955,459.036682 
	C653.144043,471.123749 654.412476,483.243713 653.829407,495.284607 
	C652.899109,514.497192 651.434998,534.037903 641.759644,551.147400 
	C630.886841,570.374390 614.792297,582.135437 590.194946,579.887634 
	C575.187927,578.516235 561.597229,572.861450 549.880981,563.207275 
	C548.816223,562.329956 548.079773,560.415527 548.076843,558.980835 
	C547.983765,513.356934 547.937134,467.732452 548.169067,422.109467 
	C548.181885,419.585876 550.101196,416.493622 552.064575,414.667450 
	C557.813721,409.320068 564.033997,404.479187 570.393005,399.245422 
z"/>
<path fill="#000000" opacity="1.000000" stroke="none" 
	d="
M987.959839,433.860321 
	C991.942871,419.429016 997.118469,406.037933 1009.982910,397.644714 
	C1016.498779,393.393494 1023.730164,390.490601 1031.724243,389.979736 
	C1045.442383,389.103119 1058.118164,391.588501 1068.788208,400.951416 
	C1075.692505,407.010040 1079.691284,414.976379 1082.922485,423.285187 
	C1089.132446,439.254333 1092.043823,455.889923 1092.005005,473.036469 
	C1091.979370,484.389343 1092.638672,495.786285 1091.860352,507.085632 
	C1090.463013,527.371582 1086.020996,547.033264 1074.764404,564.361084 
	C1068.617676,573.822876 1058.715942,578.674377 1048.041382,580.738464 
	C1036.896729,582.893494 1025.697998,581.736389 1015.071655,577.031311 
	C1004.053040,572.152771 997.656189,563.138306 993.037964,552.594788 
	C986.698059,538.120544 983.456360,522.915894 983.000549,507.126984 
	C982.632507,494.375549 981.445618,481.565186 982.261780,468.886505 
	C983.009155,457.276062 985.952698,445.806946 987.959839,433.860321 
z"/>
</svg>