<svg version="1.1" id="Layer_1" xmlns="http://www.w3.org/2000/svg" xmlns:xlink="http://www.w3.org/1999/xlink" x="0px" y="0px"
	 width="100%" viewBox="0 0 700 700" enable-background="new 0 0 700 700" xml:space="preserve">
<path fill="#FFFFFF" opacity="000000" stroke="none" 
	d="
M397.000000,701.000000 
	C264.666656,701.000000 132.833328,701.000000 1.000000,701.000000 
	C1.000000,467.666656 1.000000,234.333328 1.000000,1.000000 
	C234.333328,1.000000 467.666656,1.000000 701.000000,1.000000 
	C701.000000,234.333328 701.000000,467.666656 701.000000,701.000000 
	C599.833313,701.000000 498.666656,701.000000 397.000000,701.000000 
M486.702179,219.013474 
	C492.816864,222.719666 498.835938,226.601669 505.110504,230.013824 
	C506.770386,230.916489 509.472168,231.047531 511.258759,230.374084 
	C518.874512,227.503448 526.332886,224.213425 533.835815,221.045929 
	C538.117981,219.238144 543.996277,218.467117 546.188171,215.223679 
	C548.382202,211.977142 547.030090,206.231888 546.967896,201.585434 
	C546.856750,193.281876 546.147766,184.971283 552.867798,178.317856 
	C561.306152,169.963074 563.386597,159.558289 562.035583,148.126633 
	C561.648193,144.848831 562.746887,140.948547 561.330872,138.322159 
	C556.916748,130.135223 552.774780,121.221138 546.247925,114.968185 
	C542.236084,111.124687 534.056824,111.631126 527.748718,110.184715 
	C527.586426,110.147507 527.423584,110.111717 527.260132,110.080078 
	C520.749268,108.820099 513.716858,105.449867 507.873749,106.893425 
	C502.002808,108.343857 497.315887,114.587761 492.111145,118.732330 
	C491.589752,119.147522 491.118164,119.643074 490.551788,119.981209 
	C483.280121,124.322449 479.608582,130.753555 477.708069,139.021729 
	C475.270569,149.625946 471.621460,159.951675 468.521118,170.308105 
	C451.080719,167.622437 448.289581,165.633194 440.996185,151.025146 
	C439.955231,148.940247 439.168304,146.676437 437.834290,144.800919 
	C435.186462,141.078186 432.570068,137.234116 429.345093,134.041931 
	C423.086365,127.846916 415.824738,122.589195 410.028931,116.016899 
	C393.617859,97.407120 377.578125,78.461311 361.754974,59.347485 
	C357.602661,54.331623 353.035431,51.678688 346.678253,50.240459 
	C310.914612,42.149395 274.879608,36.178265 238.180511,34.865749 
	C226.014740,34.430653 214.508530,32.287582 204.323746,25.013115 
	C200.691925,22.419102 196.570526,20.494844 192.611740,18.378696 
	C188.522308,16.192701 184.515472,12.835264 180.194168,12.318684 
	C172.034576,11.343260 163.675430,12.036941 154.999283,12.036941 
	C154.999283,20.184458 155.194626,27.820879 154.913071,35.439674 
	C154.781387,39.003250 155.853699,41.123924 158.898315,43.104736 
	C169.899689,50.262161 180.684052,57.753113 191.688461,65.211754 
	C189.501022,67.978661 187.549789,70.445885 185.599548,72.913895 
	C183.691620,75.328369 181.784714,77.743652 179.212189,81.000771 
	C184.404312,81.000771 188.583069,80.470192 192.578812,81.100212 
	C204.580139,82.992485 213.773453,79.287399 220.597260,69.057312 
	C221.758514,67.316406 225.008881,66.201302 227.332367,66.134865 
	C237.989151,65.830154 248.662750,65.855537 259.322968,66.092720 
	C262.367584,66.160461 265.613770,66.836609 268.381714,68.087524 
	C285.199982,75.688217 301.916992,83.513840 318.632782,91.339180 
	C320.087463,92.020172 321.605133,92.999817 322.561218,94.248360 
	C338.953156,115.655205 355.261200,137.126282 371.726868,158.766190 
	C370.623993,160.122574 369.652802,161.462173 368.536957,162.667908 
	C345.913727,187.114197 323.313293,211.581833 300.610565,235.954132 
	C294.721893,242.275848 288.977783,248.873688 282.313568,254.295349 
	C274.199585,260.896454 265.269592,266.518738 256.524048,272.309937 
	C251.576813,275.585907 247.647827,279.562408 244.479507,284.614319 
	C237.935059,295.049500 230.889633,305.170319 224.332306,315.597778 
	C222.937042,317.816528 222.171005,320.777191 222.101791,323.421875 
	C221.844666,333.247375 221.651749,343.100739 222.132416,352.909424 
	C222.411194,358.598450 220.438309,362.269043 216.435135,366.237030 
	C205.576660,376.999939 194.363861,387.657898 185.172928,399.783508 
	C174.856171,413.394501 166.253815,428.363159 157.546890,443.119537 
	C149.169418,457.317596 140.057404,470.565948 125.012901,478.536926 
	C123.409966,479.386169 121.860291,480.482605 120.575943,481.756714 
	C117.680901,484.628632 114.373756,487.320221 112.286484,490.729401 
	C104.559601,503.349762 97.350380,516.285767 89.764084,528.994080 
	C85.428345,536.257202 81.481583,543.946411 76.027382,550.300049 
	C68.784424,558.737427 60.129875,565.948975 52.300682,573.902588 
	C47.858109,578.415710 42.915562,581.476685 36.620712,582.812744 
	C29.702116,584.281189 22.943508,586.503479 16.008743,588.426819 
	C16.008743,596.488525 15.697770,604.160522 16.134201,611.789795 
	C16.367718,615.871826 17.854647,619.888428 18.835230,623.920166 
	C23.268507,642.148010 28.930807,660.190186 27.093397,679.356079 
	C27.052387,679.783752 27.406591,680.249329 27.605028,680.772705 
	C37.905834,683.848999 48.185577,686.919067 59.191887,690.206116 
	C57.465706,683.867310 55.584370,678.380981 54.571503,672.738708 
	C53.897888,668.986206 53.732887,664.836121 54.609844,661.167480 
	C57.544968,648.889160 60.872540,636.694458 64.454254,624.587341 
	C65.445107,621.237976 67.350540,617.866638 69.677689,615.255066 
	C80.533913,603.072021 91.574684,591.047791 102.767860,579.172546 
	C110.626381,570.835205 117.880135,561.492004 127.066483,554.922913 
	C155.775375,534.393372 185.314560,515.027283 214.409454,495.031982 
	C217.729675,492.750214 220.729294,489.670837 223.107361,486.401154 
	C243.566498,458.271088 263.822845,429.993591 284.261078,401.848206 
	C285.255371,400.478973 287.407227,399.079407 288.976776,399.126801 
	C324.045441,400.184906 359.261932,396.092285 394.191437,402.065857 
	C401.794220,403.366058 409.429901,404.473999 417.418549,405.728333 
	C416.643555,407.375580 416.254547,408.283264 415.799866,409.156769 
	C408.665466,422.862549 400.799316,436.242828 394.541718,450.337402 
	C383.627869,474.919556 373.794434,499.979767 363.237427,524.724121 
	C362.053223,527.499756 359.522919,530.181152 356.925110,531.787659 
	C347.480865,537.628296 337.742462,542.993347 328.068085,548.564758 
	C328.486420,549.695190 328.672699,550.516785 329.068115,551.221008 
	C342.500580,575.143982 355.936340,599.065063 369.463745,622.934326 
	C370.000214,623.880981 371.425262,624.883972 372.454285,624.903381 
	C380.870239,625.061890 389.290497,624.992676 398.287231,624.992676 
	C392.475311,607.646851 386.950073,590.964172 381.254730,574.339905 
	C380.255219,571.422363 380.446899,569.213928 382.183685,566.539246 
	C405.030151,531.355713 427.790710,496.116028 450.443878,460.807739 
	C454.466705,454.537628 458.769623,448.228516 461.444000,441.354156 
	C468.672180,422.774384 475.155975,403.902435 481.723358,385.072540 
	C482.302917,383.410706 481.971313,380.771851 480.981323,379.328827 
	C474.576813,369.993774 467.922455,360.827637 461.210785,351.708588 
	C460.210480,350.349548 458.634064,349.021606 457.060028,348.536804 
	C434.202271,341.496887 411.360229,334.392822 388.382385,327.761536 
	C376.479980,324.326508 364.318024,321.791046 351.373413,318.629364 
	C353.482727,316.971344 354.839294,315.837433 356.263550,314.796021 
	C368.765656,305.654388 381.205566,296.424072 393.855011,287.490692 
	C396.296021,285.766785 399.491669,284.650299 402.475616,284.235809 
	C415.651123,282.405640 428.860504,280.769897 442.098450,279.484222 
	C444.497070,279.251251 447.769196,280.274414 449.485168,281.919891 
	C472.451355,303.943359 495.176178,326.218414 518.104126,348.282196 
	C519.674866,349.793732 522.361694,350.807220 524.568176,350.880188 
	C533.390869,351.172028 542.235474,351.186554 551.056946,350.877258 
	C553.429688,350.794067 556.280823,349.791199 558.014709,348.219940 
	C586.521973,322.386017 614.946045,296.459076 643.240356,270.391937 
	C650.675537,263.541992 658.263123,256.678070 664.602112,248.864471 
	C672.025513,239.714233 678.195496,229.542557 684.817749,219.752106 
	C685.801514,218.297714 686.842834,216.523148 686.899841,214.863800 
	C687.133850,208.050461 686.997620,201.224411 686.997620,194.127182 
	C679.221069,191.719986 671.581238,189.474854 664.033691,186.953659 
	C661.403870,186.075165 659.878601,186.706940 658.081421,188.717072 
	C651.311951,196.288635 644.217407,203.570511 637.486084,211.174606 
	C635.334717,213.604828 633.593994,213.445023 631.065247,212.098190 
	C626.285645,209.552567 621.364319,207.273178 616.179810,204.724838 
	C616.093262,206.255356 616.054016,207.077911 615.999084,207.899414 
	C615.044250,222.187698 616.058105,236.131470 623.395142,248.911072 
	C625.101501,251.883286 624.056274,253.510376 621.450867,255.378647 
	C610.489807,263.238373 599.706482,271.345795 588.847961,279.348785 
	C574.691528,289.782471 560.525452,300.203125 546.136353,310.796661 
	C537.329590,299.898529 528.694824,289.338776 520.208496,278.661041 
	C515.661987,272.940460 510.713562,267.393860 507.105865,261.103760 
	C500.240845,249.134567 494.176575,236.704193 487.865997,224.421036 
	C486.999237,222.733917 486.625641,220.793427 486.006958,218.991867 
	C486.006958,218.991867 485.992493,219.009445 486.702179,219.013474 
z"/>
<path fill="#2A8DFF" opacity="1.000000" stroke="none" 
	d="
M486.023682,218.970261 
	C486.625641,220.793427 486.999237,222.733917 487.865997,224.421036 
	C494.176575,236.704193 500.240845,249.134567 507.105865,261.103760 
	C510.713562,267.393860 515.661987,272.940460 520.208496,278.661041 
	C528.694824,289.338776 537.329590,299.898529 546.136353,310.796661 
	C560.525452,300.203125 574.691528,289.782471 588.847961,279.348785 
	C599.706482,271.345795 610.489807,263.238373 621.450867,255.378647 
	C624.056274,253.510376 625.101501,251.883286 623.395142,248.911072 
	C616.058105,236.131470 615.044250,222.187698 615.999084,207.899414 
	C616.054016,207.077911 616.093262,206.255356 616.179810,204.724838 
	C621.364319,207.273178 626.285645,209.552567 631.065247,212.098190 
	C633.593994,213.445023 635.334717,213.604828 637.486084,211.174606 
	C644.217407,203.570511 651.311951,196.288635 658.081421,188.717072 
	C659.878601,186.706940 661.403870,186.075165 664.033691,186.953659 
	C671.581238,189.474854 679.221069,191.719986 686.997620,194.127182 
	C686.997620,201.224411 687.133850,208.050461 686.899841,214.863800 
	C686.842834,216.523148 685.801514,218.297714 684.817749,219.752106 
	C678.195496,229.542557 672.025513,239.714233 664.602112,248.864471 
	C658.263123,256.678070 650.675537,263.541992 643.240356,270.391937 
	C614.946045,296.459076 586.521973,322.386017 558.014709,348.219940 
	C556.280823,349.791199 553.429688,350.794067 551.056946,350.877258 
	C542.235474,351.186554 533.390869,351.172028 524.568176,350.880188 
	C522.361694,350.807220 519.674866,349.793732 518.104126,348.282196 
	C495.176178,326.218414 472.451355,303.943359 449.485168,281.919891 
	C447.769196,280.274414 444.497070,279.251251 442.098450,279.484222 
	C428.860504,280.769897 415.651123,282.405640 402.475616,284.235809 
	C399.491669,284.650299 396.296021,285.766785 393.855011,287.490692 
	C381.205566,296.424072 368.765656,305.654388 356.263550,314.796021 
	C354.839294,315.837433 353.482727,316.971344 351.373413,318.629364 
	C364.318024,321.791046 376.479980,324.326508 388.382385,327.761536 
	C411.360229,334.392822 434.202271,341.496887 457.060028,348.536804 
	C458.634064,349.021606 460.210480,350.349548 461.210785,351.708588 
	C467.922455,360.827637 474.576813,369.993774 480.981323,379.328827 
	C481.971313,380.771851 482.302917,383.410706 481.723358,385.072540 
	C475.155975,403.902435 468.672180,422.774384 461.444000,441.354156 
	C458.769623,448.228516 454.466705,454.537628 450.443878,460.807739 
	C427.790710,496.116028 405.030151,531.355713 382.183685,566.539246 
	C380.446899,569.213928 380.255219,571.422363 381.254730,574.339905 
	C386.950073,590.964172 392.475311,607.646851 398.287231,624.992676 
	C389.290497,624.992676 380.870239,625.061890 372.454285,624.903381 
	C371.425262,624.883972 370.000214,623.880981 369.463745,622.934326 
	C355.936340,599.065063 342.500580,575.143982 329.068115,551.221008 
	C328.672699,550.516785 328.486420,549.695190 328.068085,548.564758 
	C337.742462,542.993347 347.480865,537.628296 356.925110,531.787659 
	C359.522919,530.181152 362.053223,527.499756 363.237427,524.724121 
	C373.794434,499.979767 383.627869,474.919556 394.541718,450.337402 
	C400.799316,436.242828 408.665466,422.862549 415.799866,409.156769 
	C416.254547,408.283264 416.643555,407.375580 417.418549,405.728333 
	C409.429901,404.473999 401.794220,403.366058 394.191437,402.065857 
	C359.261932,396.092285 324.045441,400.184906 288.976776,399.126801 
	C287.407227,399.079407 285.255371,400.478973 284.261078,401.848206 
	C263.822845,429.993591 243.566498,458.271088 223.107361,486.401154 
	C220.729294,489.670837 217.729675,492.750214 214.409454,495.031982 
	C185.314560,515.027283 155.775375,534.393372 127.066483,554.922913 
	C117.880135,561.492004 110.626381,570.835205 102.767860,579.172546 
	C91.574684,591.047791 80.533913,603.072021 69.677689,615.255066 
	C67.350540,617.866638 65.445107,621.237976 64.454254,624.587341 
	C60.872540,636.694458 57.544968,648.889160 54.609844,661.167480 
	C53.732887,664.836121 53.897888,668.986206 54.571503,672.738708 
	C55.584370,678.380981 57.465706,683.867310 59.191887,690.206116 
	C48.185577,686.919067 37.905834,683.848999 27.605028,680.772705 
	C27.406591,680.249329 27.052387,679.783752 27.093397,679.356079 
	C28.930807,660.190186 23.268507,642.148010 18.835230,623.920166 
	C17.854647,619.888428 16.367718,615.871826 16.134201,611.789795 
	C15.697770,604.160522 16.008743,596.488525 16.008743,588.426819 
	C22.943508,586.503479 29.702116,584.281189 36.620712,582.812744 
	C42.915562,581.476685 47.858109,578.415710 52.300682,573.902588 
	C60.129875,565.948975 68.784424,558.737427 76.027382,550.300049 
	C81.481583,543.946411 85.428345,536.257202 89.764084,528.994080 
	C97.350380,516.285767 104.559601,503.349762 112.286484,490.729401 
	C114.373756,487.320221 117.680901,484.628632 120.575943,481.756714 
	C121.860291,480.482605 123.409966,479.386169 125.012901,478.536926 
	C140.057404,470.565948 149.169418,457.317596 157.546890,443.119537 
	C166.253815,428.363159 174.856171,413.394501 185.172928,399.783508 
	C194.363861,387.657898 205.576660,376.999939 216.435135,366.237030 
	C220.438309,362.269043 222.411194,358.598450 222.132416,352.909424 
	C221.651749,343.100739 221.844666,333.247375 222.101791,323.421875 
	C222.171005,320.777191 222.937042,317.816528 224.332306,315.597778 
	C230.889633,305.170319 237.935059,295.049500 244.479507,284.614319 
	C247.647827,279.562408 251.576813,275.585907 256.524048,272.309937 
	C265.269592,266.518738 274.199585,260.896454 282.313568,254.295349 
	C288.977783,248.873688 294.721893,242.275848 300.610565,235.954132 
	C323.313293,211.581833 345.913727,187.114197 368.536957,162.667908 
	C369.652802,161.462173 370.623993,160.122574 371.726868,158.766190 
	C355.261200,137.126282 338.953156,115.655205 322.561218,94.248360 
	C321.605133,92.999817 320.087463,92.020172 318.632782,91.339180 
	C301.916992,83.513840 285.199982,75.688217 268.381714,68.087524 
	C265.613770,66.836609 262.367584,66.160461 259.322968,66.092720 
	C248.662750,65.855537 237.989151,65.830154 227.332367,66.134865 
	C225.008881,66.201302 221.758514,67.316406 220.597260,69.057312 
	C213.773453,79.287399 204.580139,82.992485 192.578812,81.100212 
	C188.583069,80.470192 184.404312,81.000771 179.212189,81.000771 
	C181.784714,77.743652 183.691620,75.328369 185.599548,72.913895 
	C187.549789,70.445885 189.501022,67.978661 191.688461,65.211754 
	C180.684052,57.753113 169.899689,50.262161 158.898315,43.104736 
	C155.853699,41.123924 154.781387,39.003250 154.913071,35.439674 
	C155.194626,27.820879 154.999283,20.184458 154.999283,12.036941 
	C163.675430,12.036941 172.034576,11.343260 180.194168,12.318684 
	C184.515472,12.835264 188.522308,16.192701 192.611740,18.378696 
	C196.570526,20.494844 200.691925,22.419102 204.323746,25.013115 
	C214.508530,32.287582 226.014740,34.430653 238.180511,34.865749 
	C274.879608,36.178265 310.914612,42.149395 346.678253,50.240459 
	C353.035431,51.678688 357.602661,54.331623 361.754974,59.347485 
	C377.578125,78.461311 393.617859,97.407120 410.028931,116.016899 
	C415.824738,122.589195 423.086365,127.846916 429.345093,134.041931 
	C432.570068,137.234116 435.186462,141.078186 437.834290,144.800919 
	C439.168304,146.676437 439.955231,148.940247 440.996185,151.025146 
	C448.289581,165.633194 451.080719,167.622437 468.521118,170.308105 
	C471.621460,159.951675 475.270569,149.625946 477.708069,139.021729 
	C479.608582,130.753555 483.280121,124.322449 490.551788,119.981209 
	C491.118164,119.643074 491.589752,119.147522 492.111145,118.732330 
	C497.315887,114.587761 502.002808,108.343857 507.873749,106.893425 
	C513.716858,105.449867 520.749268,108.820099 527.260132,110.080078 
	C527.423584,110.111717 527.586426,110.147507 527.748718,110.184715 
	C534.056824,111.631126 542.236084,111.124687 546.247925,114.968185 
	C552.774780,121.221138 556.916748,130.135223 561.330872,138.322159 
	C562.746887,140.948547 561.648193,144.848831 562.035583,148.126633 
	C563.386597,159.558289 561.306152,169.963074 552.867798,178.317856 
	C546.147766,184.971283 546.856750,193.281876 546.967896,201.585434 
	C547.030090,206.231888 548.382202,211.977142 546.188171,215.223679 
	C543.996277,218.467117 538.117981,219.238144 533.835815,221.045929 
	C526.332886,224.213425 518.874512,227.503448 511.258759,230.374084 
	C509.472168,231.047531 506.770386,230.916489 505.110504,230.013824 
	C498.835938,226.601669 492.816864,222.719666 486.285645,218.805969 
	C485.694244,218.677521 485.519348,218.756561 485.344421,218.835602 
	C485.570831,218.880478 485.797272,218.925369 486.023682,218.970261 
z"/>
<path fill="#FFFFFF" opacity="1.000000" stroke="none" 
	d="
M486.015320,218.981064 
	C485.797272,218.925369 485.570831,218.880478 485.344421,218.835602 
	C485.519348,218.756561 485.694244,218.677521 485.930817,218.803955 
	C485.992493,219.009445 486.006958,218.991867 486.015320,218.981064 
z"/>
</svg>